<svg id="visual" viewBox="0 0 600 900" width="600" height="900" xmlns="http://www.w3.org/2000/svg" xmlns:xlink="http://www.w3.org/1999/xlink" version="1.1"><rect x="0" y="0" width="600" height="900" fill="#120371"></rect><path d="M0 483L8.3 491.2C16.7 499.3 33.3 515.7 50 522.7C66.7 529.7 83.3 527.3 100 534.5C116.7 541.7 133.3 558.3 150 559.8C166.7 561.3 183.3 547.7 200 522.2C216.7 496.7 233.3 459.3 250 441C266.7 422.7 283.3 423.3 300 445C316.7 466.7 333.3 509.3 350 523C366.7 536.7 383.3 521.3 400 506.2C416.7 491 433.3 476 450 464.5C466.7 453 483.3 445 500 447.3C516.7 449.7 533.3 462.3 550 483.2C566.7 504 583.3 533 591.7 547.5L600 562L600 901L591.7 901C583.3 901 566.7 901 550 901C533.3 901 516.7 901 500 901C483.3 901 466.7 901 450 901C433.3 901 416.7 901 400 901C383.3 901 366.7 901 350 901C333.3 901 316.7 901 300 901C283.3 901 266.7 901 250 901C233.3 901 216.7 901 200 901C183.3 901 166.7 901 150 901C133.3 901 116.7 901 100 901C83.3 901 66.7 901 50 901C33.3 901 16.7 901 8.3 901L0 901Z" fill="#5f47fd" stroke-linecap="round" stroke-linejoin="miter"></path></svg>